<?xml version="1.0" encoding="UTF-8"?>
<svg width="26px" height="24px" viewBox="0 0 26 24" version="1.1" xmlns="http://www.w3.org/2000/svg" xmlns:xlink="http://www.w3.org/1999/xlink">
    <!-- Generator: Sketch 49.3 (51167) - http://www.bohemiancoding.com/sketch -->
    <title>Extension</title>
    <desc>Created with Sketch.</desc>
    <defs></defs>
    <g id="Page-1" stroke="none" stroke-width="1" fill="none" fill-rule="evenodd">
        <g id="Extension" fill-rule="nonzero">
            <path d="M3.953,6.941 L1.469,6.941 C1.193,6.941 0.969,6.717 0.969,6.441 L0.969,3.408 C0.969,1.621 2.422,0.168 4.209,0.168 L7.244,0.168 C7.52,0.168 7.744,0.392 7.744,0.668 L7.744,3.152 C7.744,3.428 7.52,3.652 7.244,3.652 L6.102,3.652 C5.193,3.652 4.454,4.392 4.454,5.302 L4.454,6.441 C4.453,6.718 4.229,6.941 3.953,6.941 Z M1.969,5.941 L3.453,5.941 L3.453,5.303 C3.453,3.841 4.641,2.653 6.101,2.653 L6.744,2.653 L6.744,1.168 L4.209,1.168 C2.974,1.168 1.969,2.173 1.969,3.408 L1.969,5.941 Z" id="Shape" fill="#41AB31"></path>
            <path d="M19.898,21.746 L6.102,21.746 C4.642,21.746 3.454,20.558 3.454,19.096 L3.454,5.303 C3.454,3.842 4.642,2.653 6.102,2.653 L19.899,2.653 C21.359,2.653 22.547,3.842 22.547,5.303 L22.547,19.096 C22.547,20.558 21.358,21.746 19.898,21.746 Z M6.102,3.652 C5.193,3.652 4.454,4.392 4.454,5.302 L4.454,19.095 C4.454,20.005 5.193,20.745 6.102,20.745 L19.899,20.745 C20.808,20.745 21.547,20.005 21.547,19.095 L21.547,5.303 C21.547,4.393 20.808,3.653 19.899,3.653 L6.102,3.653 L6.102,3.652 Z" id="Shape" fill="#41AB31"></path>
            <path d="M24.531,6.941 L22.047,6.941 C21.771,6.941 21.547,6.717 21.547,6.441 L21.547,5.303 C21.547,4.393 20.808,3.653 19.899,3.653 L18.756,3.653 C18.48,3.653 18.256,3.429 18.256,3.153 L18.256,0.668 C18.256,0.392 18.48,0.168 18.756,0.168 L21.791,0.168 C23.578,0.168 25.031,1.621 25.031,3.408 L25.031,6.441 C25.031,6.718 24.808,6.941 24.531,6.941 Z M22.547,5.941 L24.031,5.941 L24.031,3.408 C24.031,2.173 23.026,1.168 21.791,1.168 L19.256,1.168 L19.256,2.652 L19.899,2.652 C21.359,2.652 22.547,3.84 22.547,5.302 L22.547,5.941 Z" id="Shape" fill="#41AB31"></path>
            <path d="M17.389,18.455 C17.113,18.455 16.889,18.231 16.889,17.955 C16.889,17.679 17.113,17.455 17.389,17.455 C17.868,17.455 18.256,17.066 18.256,16.588 L18.256,7.811 C18.256,7.332 17.867,6.944 17.389,6.944 C17.113,6.944 16.889,6.72 16.889,6.444 C16.889,6.168 17.113,5.944 17.389,5.944 C18.418,5.944 19.256,6.782 19.256,7.811 L19.256,16.588 C19.256,17.617 18.418,18.455 17.389,18.455 Z" id="Shape" fill="#4D4D4D"></path>
            <path d="M8.611,18.455 C7.582,18.455 6.744,17.617 6.744,16.588 L6.744,7.811 C6.744,6.782 7.582,5.944 8.611,5.944 C8.887,5.944 9.111,6.168 9.111,6.444 C9.111,6.72 8.887,6.944 8.611,6.944 C8.132,6.944 7.744,7.333 7.744,7.811 L7.744,16.588 C7.744,17.067 8.133,17.455 8.611,17.455 C8.887,17.455 9.111,17.679 9.111,17.955 C9.111,18.231 8.888,18.455 8.611,18.455 Z" id="Shape" fill="#4D4D4D"></path>
            <path d="M9.111,6.943 L8.611,6.943 C8.335,6.943 8.111,6.719 8.111,6.443 C8.111,6.167 8.335,5.943 8.611,5.943 L9.111,5.943 C9.387,5.943 9.611,6.167 9.611,6.443 C9.611,6.719 9.388,6.943 9.111,6.943 Z" id="path-1" fill="#4D4D4D"></path>
            <path d="M14.944,6.943 L13.972,6.943 C13.696,6.943 13.472,6.719 13.472,6.443 C13.472,6.167 13.696,5.943 13.972,5.943 L14.944,5.943 C15.22,5.943 15.444,6.167 15.444,6.443 C15.444,6.719 15.221,6.943 14.944,6.943 Z M12.027,6.943 L11.055,6.943 C10.779,6.943 10.555,6.719 10.555,6.443 C10.555,6.167 10.779,5.943 11.055,5.943 L12.027,5.943 C12.303,5.943 12.527,6.167 12.527,6.443 C12.527,6.719 12.304,6.943 12.027,6.943 Z" id="path-2" fill="#4D4D4D"></path>
            <path d="M17.389,6.943 L16.889,6.943 C16.613,6.943 16.389,6.719 16.389,6.443 C16.389,6.167 16.613,5.943 16.889,5.943 L17.389,5.943 C17.665,5.943 17.889,6.167 17.889,6.443 C17.889,6.719 17.665,6.943 17.389,6.943 Z" id="path-3" fill="#4D4D4D"></path>
            <path d="M17.389,18.455 L16.889,18.455 C16.613,18.455 16.389,18.231 16.389,17.955 C16.389,17.679 16.613,17.455 16.889,17.455 L17.389,17.455 C17.665,17.455 17.889,17.679 17.889,17.955 C17.889,18.231 17.665,18.455 17.389,18.455 Z" id="path-3" fill="#4D4D4D"></path>
            <path d="M14.944,18.455 L13.972,18.455 C13.696,18.455 13.472,18.231 13.472,17.955 C13.472,17.679 13.696,17.455 13.972,17.455 L14.944,17.455 C15.22,17.455 15.444,17.679 15.444,17.955 C15.444,18.231 15.221,18.455 14.944,18.455 Z M12.027,18.455 L11.055,18.455 C10.779,18.455 10.555,18.231 10.555,17.955 C10.555,17.679 10.779,17.455 11.055,17.455 L12.027,17.455 C12.303,17.455 12.527,17.679 12.527,17.955 C12.527,18.231 12.304,18.455 12.027,18.455 Z" id="path-2" fill="#4D4D4D"></path>
            <path d="M9.111,18.455 L8.611,18.455 C8.335,18.455 8.111,18.231 8.111,17.955 C8.111,17.679 8.335,17.455 8.611,17.455 L9.111,17.455 C9.387,17.455 9.611,17.679 9.611,17.955 C9.611,18.231 9.388,18.455 9.111,18.455 Z" id="path-1" fill="#4D4D4D"></path>
            <path d="M13.002,12.701 C12.726,12.701 12.502,12.477 12.502,12.201 L12.502,8.076 C12.502,7.8 12.726,7.576 13.002,7.576 C13.278,7.576 13.502,7.8 13.502,8.076 L13.502,12.201 C13.502,12.478 13.278,12.701 13.002,12.701 Z" id="Shape" fill="#4D4D4D"></path>
            <path d="M13.002,13.213 C12.44,13.213 11.982,12.757 11.982,12.197 C11.982,11.635 12.439,11.177 13.002,11.177 C13.562,11.177 14.018,11.634 14.018,12.197 C14.018,12.757 13.562,13.213 13.002,13.213 Z" id="Shape" fill="#4D4D4D"></path>
            <path d="M10.744,12.701 L9.836,12.701 C9.56,12.701 9.336,12.477 9.336,12.201 C9.336,11.925 9.56,11.701 9.836,11.701 L10.744,11.701 C11.02,11.701 11.244,11.925 11.244,12.201 C11.244,12.477 11.021,12.701 10.744,12.701 Z" id="Shape" fill="#4D4D4D"></path>
            <path d="M10.426,23.832 L6.523,23.832 C6.247,23.832 6.023,23.608 6.023,23.332 L6.023,21.246 C6.023,20.97 6.247,20.746 6.523,20.746 L10.425,20.746 C10.701,20.746 10.925,20.97 10.925,21.246 L10.925,23.332 C10.926,23.608 10.702,23.832 10.426,23.832 Z M7.023,22.832 L9.925,22.832 L9.925,21.746 L7.023,21.746 L7.023,22.832 Z" id="Shape" fill="#41AB31"></path>
            <path d="M19.477,23.832 L15.575,23.832 C15.299,23.832 15.075,23.608 15.075,23.332 L15.075,21.246 C15.075,20.97 15.299,20.746 15.575,20.746 L19.477,20.746 C19.753,20.746 19.977,20.97 19.977,21.246 L19.977,23.332 C19.977,23.608 19.753,23.832 19.477,23.832 Z M16.074,22.832 L18.976,22.832 L18.976,21.746 L16.074,21.746 L16.074,22.832 Z" id="Shape" fill="#41AB31"></path>
        </g>
    </g>
</svg>