<?xml version="1.0" encoding="UTF-8"?>
<svg width="12px" height="12px" viewBox="0 0 12 12" version="1.1" xmlns="http://www.w3.org/2000/svg" xmlns:xlink="http://www.w3.org/1999/xlink">
    <!-- Generator: Sketch 52.6 (67491) - http://www.bohemiancoding.com/sketch -->
    <title>icon-month-view</title>
    <desc>Created with Sketch.</desc>
    <defs>
        <rect id="path-1" x="0" y="0" width="12" height="12"></rect>
    </defs>
    <g id="Page-1" stroke="none" stroke-width="1" fill="none" fill-rule="evenodd">
        <g id="icon-month-view">
            <mask id="mask-2" fill="white">
                <use xlink:href="#path-1"></use>
            </mask>
            <g id="Rectangle"></g>
            <rect id="Rectangle" fill="#ADCA84" mask="url(#mask-2)" x="-3.55271368e-15" y="3" width="1.2" height="1.2"></rect>
            <rect id="Rectangle-Copy-11" fill="#ADCA84" mask="url(#mask-2)" x="-3.55271368e-15" y="10.7961562" width="1.2" height="1.2"></rect>
            <rect id="Rectangle-Copy-17" fill="#ADCA84" mask="url(#mask-2)" x="-3.55271368e-15" y="8.84711718" width="1.2" height="1.2"></rect>
            <rect id="Rectangle-Copy-23" fill="#D1695B" mask="url(#mask-2)" x="-3.55271368e-15" y="6.89807812" width="1.2" height="1.2"></rect>
            <rect id="Rectangle-Copy-29" fill="#ADCA84" mask="url(#mask-2)" x="-3.55271368e-15" y="4.94903906" width="1.2" height="1.2"></rect>
            <rect id="Rectangle-Copy" fill="#ADCA84" mask="url(#mask-2)" x="2.16" y="3" width="1.2" height="1.2"></rect>
            <rect id="Rectangle-Copy-12" fill="#D1695B" mask="url(#mask-2)" x="2.16" y="10.7961562" width="1.2" height="1.2"></rect>
            <rect id="Rectangle-Copy-18" fill="#ADCA84" mask="url(#mask-2)" x="2.16" y="8.84711718" width="1.2" height="1.2"></rect>
            <rect id="Rectangle-Copy-24" fill="#ADCA84" mask="url(#mask-2)" x="2.16" y="6.89807812" width="1.2" height="1.2"></rect>
            <rect id="Rectangle-Copy-30" fill="#D1695B" mask="url(#mask-2)" x="2.16" y="4.94903906" width="1.2" height="1.2"></rect>
            <rect id="Rectangle-Copy-2" fill="#ADCA84" mask="url(#mask-2)" x="10.8" y="3" width="1.2" height="1.2"></rect>
            <rect id="Rectangle-Copy-13" fill="#D1695B" mask="url(#mask-2)" x="10.8" y="10.7961562" width="1.2" height="1.2"></rect>
            <rect id="Rectangle-Copy-19" fill="#D1695B" mask="url(#mask-2)" x="10.8" y="8.84711718" width="1.2" height="1.2"></rect>
            <rect id="Rectangle-Copy-25" fill="#ADCA84" mask="url(#mask-2)" x="10.8" y="6.89807812" width="1.2" height="1.2"></rect>
            <rect id="Rectangle-Copy-31" fill="#ADCA84" mask="url(#mask-2)" x="10.8" y="4.94903906" width="1.2" height="1.2"></rect>
            <rect id="Rectangle-Copy-8" fill="#D1695B" mask="url(#mask-2)" x="8.64" y="3" width="1.2" height="1.2"></rect>
            <rect id="Rectangle-Copy-14" fill="#ADCA84" mask="url(#mask-2)" x="8.64" y="10.7961562" width="1.2" height="1.2"></rect>
            <rect id="Rectangle-Copy-20" fill="#ADCA84" mask="url(#mask-2)" x="8.64" y="8.84711718" width="1.2" height="1.2"></rect>
            <rect id="Rectangle-Copy-26" fill="#ADCA84" mask="url(#mask-2)" x="8.64" y="6.89807812" width="1.2" height="1.2"></rect>
            <rect id="Rectangle-Copy-32" fill="#ADCA84" mask="url(#mask-2)" x="8.64" y="4.94903906" width="1.2" height="1.2"></rect>
            <rect id="Rectangle-Copy-9" fill="#ADCA84" mask="url(#mask-2)" x="6.48" y="3" width="1.2" height="1.2"></rect>
            <rect id="Rectangle-Copy-15" fill="#ADCA84" mask="url(#mask-2)" x="6.48" y="10.7961562" width="1.2" height="1.2"></rect>
            <rect id="Rectangle-Copy-21" fill="#ADCA84" mask="url(#mask-2)" x="6.48" y="8.84711718" width="1.2" height="1.2"></rect>
            <rect id="Rectangle-Copy-27" fill="#D1695B" mask="url(#mask-2)" x="6.48" y="6.89807812" width="1.2" height="1.2"></rect>
            <rect id="Rectangle-Copy-33" fill="#D1695B" mask="url(#mask-2)" x="6.48" y="4.94903906" width="1.2" height="1.2"></rect>
            <rect id="Rectangle-Copy-10" fill="#ADCA84" mask="url(#mask-2)" x="4.32" y="3" width="1.2" height="1.2"></rect>
            <rect id="Rectangle-Copy-16" fill="#ADCA84" mask="url(#mask-2)" x="4.32" y="10.7961562" width="1.2" height="1.2"></rect>
            <rect id="Rectangle-Copy-22" fill="#ADCA84" mask="url(#mask-2)" x="4.32" y="8.84711718" width="1.2" height="1.2"></rect>
            <rect id="Rectangle-Copy-28" fill="#D1695B" mask="url(#mask-2)" x="4.32" y="6.89807812" width="1.2" height="1.2"></rect>
            <rect id="Rectangle-Copy-34" fill="#ADCA84" mask="url(#mask-2)" x="4.32" y="4.94903906" width="1.2" height="1.2"></rect>
            <rect id="Rectangle" fill="#868686" mask="url(#mask-2)" x="-3.55271368e-15" y="0" width="12" height="2"></rect>
        </g>
    </g>
</svg>