<?xml version="1.0" encoding="UTF-8"?>
<svg width="32px" height="32px" viewBox="0 0 32 32" version="1.1" xmlns="http://www.w3.org/2000/svg" xmlns:xlink="http://www.w3.org/1999/xlink">
    <!-- Generator: Sketch 49.3 (51167) - http://www.bohemiancoding.com/sketch -->
    <title>module_administration</title>
    <desc>Created with Sketch.</desc>
    <defs></defs>
    <g id="Page-1" stroke="none" stroke-width="1" fill="none" fill-rule="evenodd">
        <g id="module_administration">
            <rect id="Rectangle-2" fill="#41AB31" x="0" y="0" width="32" height="32"></rect>
            <g id="Group" transform="translate(4.000000, 5.000000)" fill="#FFFFFF" fill-rule="nonzero">
                <path d="M3.64892308,6.40707692 L1.356,6.40707692 C1.10123077,6.40707692 0.894461538,6.20030769 0.894461538,5.94553846 L0.894461538,3.14584615 C0.894461538,1.49630769 2.23569231,0.155076923 3.88523077,0.155076923 L6.68676923,0.155076923 C6.94153846,0.155076923 7.14830769,0.361846154 7.14830769,0.616615385 L7.14830769,2.90953846 C7.14830769,3.16430769 6.94153846,3.37107692 6.68676923,3.37107692 L5.63261538,3.37107692 C4.79353846,3.37107692 4.11138462,4.05415385 4.11138462,4.89415385 L4.11138462,5.94553846 C4.11046154,6.20123077 3.90369231,6.40707692 3.64892308,6.40707692 Z M1.81753846,5.484 L3.18738462,5.484 L3.18738462,4.89507692 C3.18738462,3.54553846 4.284,2.44892308 5.63169231,2.44892308 L6.22523077,2.44892308 L6.22523077,1.07815385 L3.88523077,1.07815385 C2.74523077,1.07815385 1.81753846,2.00584615 1.81753846,3.14584615 L1.81753846,5.484 Z" id="Shape"></path>
                <path d="M18.3673846,20.0732308 L5.63261538,20.0732308 C4.28492308,20.0732308 3.18830769,18.9766154 3.18830769,17.6270769 L3.18830769,4.89507692 C3.18830769,3.54646154 4.28492308,2.44892308 5.63261538,2.44892308 L18.3683077,2.44892308 C19.716,2.44892308 20.8126154,3.54646154 20.8126154,4.89507692 L20.8126154,17.6270769 C20.8126154,18.9766154 19.7150769,20.0732308 18.3673846,20.0732308 Z M5.63261538,3.37107692 C4.79353846,3.37107692 4.11138462,4.05415385 4.11138462,4.89415385 L4.11138462,17.6261538 C4.11138462,18.4661538 4.79353846,19.1492308 5.63261538,19.1492308 L18.3683077,19.1492308 C19.2073846,19.1492308 19.8895385,18.4661538 19.8895385,17.6261538 L19.8895385,4.89507692 C19.8895385,4.05507692 19.2073846,3.372 18.3683077,3.372 L5.63261538,3.372 L5.63261538,3.37107692 Z" id="Shape"></path>
                <path d="M22.644,6.40707692 L20.3510769,6.40707692 C20.0963077,6.40707692 19.8895385,6.20030769 19.8895385,5.94553846 L19.8895385,4.89507692 C19.8895385,4.05507692 19.2073846,3.372 18.3683077,3.372 L17.3132308,3.372 C17.0584615,3.372 16.8516923,3.16523077 16.8516923,2.91046154 L16.8516923,0.616615385 C16.8516923,0.361846154 17.0584615,0.155076923 17.3132308,0.155076923 L20.1147692,0.155076923 C21.7643077,0.155076923 23.1055385,1.49630769 23.1055385,3.14584615 L23.1055385,5.94553846 C23.1055385,6.20123077 22.8996923,6.40707692 22.644,6.40707692 Z M20.8126154,5.484 L22.1824615,5.484 L22.1824615,3.14584615 C22.1824615,2.00584615 21.2547692,1.07815385 20.1147692,1.07815385 L17.7747692,1.07815385 L17.7747692,2.448 L18.3683077,2.448 C19.716,2.448 20.8126154,3.54461538 20.8126154,4.89415385 L20.8126154,5.484 Z" id="Shape"></path>
                <path d="M16.0513846,17.0353846 C15.7966154,17.0353846 15.5898462,16.8286154 15.5898462,16.5738462 C15.5898462,16.3190769 15.7966154,16.1123077 16.0513846,16.1123077 C16.4935385,16.1123077 16.8516923,15.7532308 16.8516923,15.312 L16.8516923,7.21015385 C16.8516923,6.768 16.4926154,6.40984615 16.0513846,6.40984615 C15.7966154,6.40984615 15.5898462,6.20307692 15.5898462,5.94830769 C15.5898462,5.69353846 15.7966154,5.48676923 16.0513846,5.48676923 C17.0012308,5.48676923 17.7747692,6.26030769 17.7747692,7.21015385 L17.7747692,15.312 C17.7747692,16.2618462 17.0012308,17.0353846 16.0513846,17.0353846 Z" id="Shape"></path>
                <path d="M7.94861538,17.0353846 C6.99876923,17.0353846 6.22523077,16.2618462 6.22523077,15.312 L6.22523077,7.21015385 C6.22523077,6.26030769 6.99876923,5.48676923 7.94861538,5.48676923 C8.20338462,5.48676923 8.41015385,5.69353846 8.41015385,5.94830769 C8.41015385,6.20307692 8.20338462,6.40984615 7.94861538,6.40984615 C7.50646154,6.40984615 7.14830769,6.76892308 7.14830769,7.21015385 L7.14830769,15.312 C7.14830769,15.7541538 7.50738462,16.1123077 7.94861538,16.1123077 C8.20338462,16.1123077 8.41015385,16.3190769 8.41015385,16.5738462 C8.41015385,16.8286154 8.20430769,17.0353846 7.94861538,17.0353846 Z" id="Shape"></path>
                <path d="M8.41015385,6.40892308 L7.94861538,6.40892308 C7.69384615,6.40892308 7.48707692,6.20215385 7.48707692,5.94738462 C7.48707692,5.69261538 7.69384615,5.48584615 7.94861538,5.48584615 L8.41015385,5.48584615 C8.66492308,5.48584615 8.87169231,5.69261538 8.87169231,5.94738462 C8.87169231,6.20215385 8.66584615,6.40892308 8.41015385,6.40892308 Z" id="path-1"></path>
                <path d="M13.7944615,6.40892308 L12.8972308,6.40892308 C12.6424615,6.40892308 12.4356923,6.20215385 12.4356923,5.94738462 C12.4356923,5.69261538 12.6424615,5.48584615 12.8972308,5.48584615 L13.7944615,5.48584615 C14.0492308,5.48584615 14.256,5.69261538 14.256,5.94738462 C14.256,6.20215385 14.0501538,6.40892308 13.7944615,6.40892308 Z M11.1018462,6.40892308 L10.2046154,6.40892308 C9.94984615,6.40892308 9.74307692,6.20215385 9.74307692,5.94738462 C9.74307692,5.69261538 9.94984615,5.48584615 10.2046154,5.48584615 L11.1018462,5.48584615 C11.3566154,5.48584615 11.5633846,5.69261538 11.5633846,5.94738462 C11.5633846,6.20215385 11.3575385,6.40892308 11.1018462,6.40892308 Z" id="path-2"></path>
                <path d="M16.0513846,6.40892308 L15.5898462,6.40892308 C15.3350769,6.40892308 15.1283077,6.20215385 15.1283077,5.94738462 C15.1283077,5.69261538 15.3350769,5.48584615 15.5898462,5.48584615 L16.0513846,5.48584615 C16.3061538,5.48584615 16.5129231,5.69261538 16.5129231,5.94738462 C16.5129231,6.20215385 16.3061538,6.40892308 16.0513846,6.40892308 Z" id="path-3"></path>
                <path d="M16.0513846,17.0353846 L15.5898462,17.0353846 C15.3350769,17.0353846 15.1283077,16.8286154 15.1283077,16.5738462 C15.1283077,16.3190769 15.3350769,16.1123077 15.5898462,16.1123077 L16.0513846,16.1123077 C16.3061538,16.1123077 16.5129231,16.3190769 16.5129231,16.5738462 C16.5129231,16.8286154 16.3061538,17.0353846 16.0513846,17.0353846 Z" id="path-3"></path>
                <path d="M13.7944615,17.0353846 L12.8972308,17.0353846 C12.6424615,17.0353846 12.4356923,16.8286154 12.4356923,16.5738462 C12.4356923,16.3190769 12.6424615,16.1123077 12.8972308,16.1123077 L13.7944615,16.1123077 C14.0492308,16.1123077 14.256,16.3190769 14.256,16.5738462 C14.256,16.8286154 14.0501538,17.0353846 13.7944615,17.0353846 Z M11.1018462,17.0353846 L10.2046154,17.0353846 C9.94984615,17.0353846 9.74307692,16.8286154 9.74307692,16.5738462 C9.74307692,16.3190769 9.94984615,16.1123077 10.2046154,16.1123077 L11.1018462,16.1123077 C11.3566154,16.1123077 11.5633846,16.3190769 11.5633846,16.5738462 C11.5633846,16.8286154 11.3575385,17.0353846 11.1018462,17.0353846 Z" id="path-2"></path>
                <path d="M8.41015385,17.0353846 L7.94861538,17.0353846 C7.69384615,17.0353846 7.48707692,16.8286154 7.48707692,16.5738462 C7.48707692,16.3190769 7.69384615,16.1123077 7.94861538,16.1123077 L8.41015385,16.1123077 C8.66492308,16.1123077 8.87169231,16.3190769 8.87169231,16.5738462 C8.87169231,16.8286154 8.66584615,17.0353846 8.41015385,17.0353846 Z" id="path-1"></path>
                <path d="M12.0018462,11.724 C11.7470769,11.724 11.5403077,11.5172308 11.5403077,11.2624615 L11.5403077,7.45476923 C11.5403077,7.2 11.7470769,6.99323077 12.0018462,6.99323077 C12.2566154,6.99323077 12.4633846,7.2 12.4633846,7.45476923 L12.4633846,11.2624615 C12.4633846,11.5181538 12.2566154,11.724 12.0018462,11.724 Z" id="Shape"></path>
                <path d="M12.0018462,12.1966154 C11.4830769,12.1966154 11.0603077,11.7756923 11.0603077,11.2587692 C11.0603077,10.74 11.4821538,10.3172308 12.0018462,10.3172308 C12.5187692,10.3172308 12.9396923,10.7390769 12.9396923,11.2587692 C12.9396923,11.7756923 12.5187692,12.1966154 12.0018462,12.1966154 Z" id="Shape"></path>
                <path d="M9.91753846,11.724 L9.07938462,11.724 C8.82461538,11.724 8.61784615,11.5172308 8.61784615,11.2624615 C8.61784615,11.0076923 8.82461538,10.8009231 9.07938462,10.8009231 L9.91753846,10.8009231 C10.1723077,10.8009231 10.3790769,11.0076923 10.3790769,11.2624615 C10.3790769,11.5172308 10.1732308,11.724 9.91753846,11.724 Z" id="Shape"></path>
                <path d="M9.624,21.9987692 L6.02123077,21.9987692 C5.76646154,21.9987692 5.55969231,21.792 5.55969231,21.5372308 L5.55969231,19.6116923 C5.55969231,19.3569231 5.76646154,19.1501538 6.02123077,19.1501538 L9.62307692,19.1501538 C9.87784615,19.1501538 10.0846154,19.3569231 10.0846154,19.6116923 L10.0846154,21.5372308 C10.0855385,21.792 9.87876923,21.9987692 9.624,21.9987692 Z M6.48276923,21.0756923 L9.16153846,21.0756923 L9.16153846,20.0732308 L6.48276923,20.0732308 L6.48276923,21.0756923 Z" id="Shape"></path>
                <path d="M17.9787692,21.9987692 L14.3769231,21.9987692 C14.1221538,21.9987692 13.9153846,21.792 13.9153846,21.5372308 L13.9153846,19.6116923 C13.9153846,19.3569231 14.1221538,19.1501538 14.3769231,19.1501538 L17.9787692,19.1501538 C18.2335385,19.1501538 18.4403077,19.3569231 18.4403077,19.6116923 L18.4403077,21.5372308 C18.4403077,21.792 18.2335385,21.9987692 17.9787692,21.9987692 Z M14.8375385,21.0756923 L17.5163077,21.0756923 L17.5163077,20.0732308 L14.8375385,20.0732308 L14.8375385,21.0756923 Z" id="Shape"></path>
            </g>
        </g>
    </g>
</svg>