<?xml version="1.0" encoding="UTF-8"?>
<svg width="26px" height="26px" viewBox="0 0 26 26" version="1.1" xmlns="http://www.w3.org/2000/svg" xmlns:xlink="http://www.w3.org/1999/xlink">
    <!-- Generator: Sketch 49.3 (51167) - http://www.bohemiancoding.com/sketch -->
    <title>tx_bwbookingmanager_domain_model_entry</title>
    <desc>Created with Sketch.</desc>
    <defs></defs>
    <g id="Page-1" stroke="none" stroke-width="1" fill="none" fill-rule="evenodd">
        <g id="tx_bwbookingmanager_domain_model_entry" fill-rule="nonzero">
            <path d="M10.4,25.1 C10.3,25.1 10.1,25 10,25 L7.7,22.7 C7.6,22.6 7.6,22.5 7.6,22.3 C7.6,22.2 7.7,22 7.8,21.9 C8.5,21.2 8.6,20.5 7.1,19 C6.6,18.5 5.8,17.8 5.1,17.8 C4.8,17.8 4.5,18 4.2,18.3 C4.1,18.4 4,18.5 3.8,18.5 C3.7,18.5 3.5,18.5 3.4,18.4 L1,16 C0.8,15.8 0.8,15.5 1,15.3 L15.3,1 C15.4,0.9 15.5,0.9 15.7,0.9 C15.8,0.9 16,1 16.1,1 L18.4,3.3 C18.6,3.5 18.6,3.8 18.4,4 C18.4,4 18.3,4.1 18.3,4.1 C17.8,4.7 17.8,5.1 17.9,5.4 C18,5.8 18.4,6.3 19,7 C19.5,7.5 20.3,8.2 21,8.2 C21.3,8.2 21.6,8 21.9,7.7 C21.9,7.7 21.9,7.6 22,7.6 C22.2,7.4 22.5,7.5 22.7,7.6 L25,10 C25.2,10.2 25.2,10.5 25,10.7 L10.7,25 C10.6,25.1 10.5,25.1 10.4,25.1 Z M8.7,22.3 L10.3,23.9 L23.8,10.4 L22.2,8.8 C21.8,9.1 21.4,9.3 20.9,9.3 C19.9,9.3 18.9,8.5 18.2,7.8 C17.4,7 17,6.4 16.8,5.8 C16.6,5.1 16.7,4.4 17.2,3.8 L15.6,2.2 L2.1,15.6 L3.7,17.2 C4.1,16.9 4.5,16.7 5,16.7 C6,16.7 7,17.5 7.7,18.2 C8.4,18.9 10,20.6 8.7,22.3 Z" id="Shape" fill="#41AB31"></path>
            <polygon id="path-1" fill="#4D4D4D" transform="translate(12.386196, 5.776370) rotate(45.000000) translate(-12.386196, -5.776370) " points="11.5362045 5.276375 13.2361875 5.276375 13.2361875 6.276365 11.5362045 6.276365"></polygon>
            <polygon id="path-1" fill="#4D4D4D" transform="translate(14.977147, 8.379909) rotate(44.975700) translate(-14.977147, -8.379909) " points="14.1271553 7.87991355 15.8271383 7.87991355 15.8271383 8.87990355 14.1271553 8.87990355"></polygon>
            <polygon id="path-1" fill="#4D4D4D" transform="translate(17.565881, 10.984659) rotate(45.000000) translate(-17.565881, -10.984659) " points="16.7158891 10.4846637 18.4158721 10.4846637 18.4158721 11.4846537 16.7158891 11.4846537"></polygon>
            <polygon id="path-1" fill="#4D4D4D" transform="translate(20.155696, 13.588958) rotate(45.000000) translate(-20.155696, -13.588958) " points="19.3057046 13.0889626 21.0056876 13.0889626 21.0056876 14.0889526 19.3057046 14.0889526"></polygon>
            <polygon id="path-2" fill="#4D4D4D" transform="translate(9.902669, 12.128729) rotate(45.000000) translate(-9.902669, -12.128729) " points="9.40267363 9.07875921 10.4026636 9.07875921 10.4026636 15.1786982 9.40267363 15.1786982"></polygon>
            <polygon id="path-2" fill="#4D4D4D" transform="translate(11.867378, 14.143260) rotate(45.000000) translate(-11.867378, -14.143260) " points="11.3673833 11.0932901 12.3673733 11.0932901 12.3673733 17.1932291 11.3673833 17.1932291"></polygon>
            <polygon id="Shape" fill="#4D4D4D" transform="translate(12.937723, 16.929379) rotate(45.000000) translate(-12.937723, -16.929379) " points="12.4377281 15.1793961 13.4377181 15.1793961 13.4377181 18.6793611 12.4377281 18.6793611"></polygon>
        </g>
    </g>
</svg>