<?xml version="1.0" encoding="UTF-8"?>
<svg width="21px" height="24px" viewBox="0 0 21 24" version="1.1" xmlns="http://www.w3.org/2000/svg" xmlns:xlink="http://www.w3.org/1999/xlink">
    <!-- Generator: Sketch 49.3 (51167) - http://www.bohemiancoding.com/sketch -->
    <title>tx_bwbookingmanager_domain_model_timeslot</title>
    <desc>Created with Sketch.</desc>
    <defs></defs>
    <g id="Page-1" stroke="none" stroke-width="1" fill="none" fill-rule="evenodd">
        <g id="tx_bwbookingmanager_domain_model_timeslot" fill-rule="nonzero">
            <path d="M20,1 L1,1 C0.724,1 0.5,0.776 0.5,0.5 C0.5,0.224 0.724,0 1,0 L20,0 C20.276,0 20.5,0.224 20.5,0.5 C20.5,0.776 20.276,1 20,1 Z" id="path-1" fill="#41AB31"></path>
            <path d="M20,24 L1,24 C0.724,24 0.5,23.776 0.5,23.5 C0.5,23.224 0.724,23 1,23 L20,23 C20.276,23 20.5,23.224 20.5,23.5 C20.5,23.776 20.276,24 20,24 Z" id="path-1" fill="#41AB31"></path>
            <path d="M17.5,24 L3.5,24 C3.224,24 3,23.776 3,23.5 L3,21.324 C3,18.9 4.252,16.755 6.526,15.283 C7.576,14.601 8.673,13.204 9.131,11.981 C8.723,10.574 8.02,10.142 7.058,9.55 C6.886,9.444 6.709,9.335 6.529,9.217 C4.419,7.856 3,5.227 3,2.676 L3,0.5 C3,0.224 3.224,-3.55271368e-15 3.5,-3.55271368e-15 L17.5,-3.55271368e-15 C17.776,-3.55271368e-15 18,0.224 18,0.5 L18,2.676 C18,5.261 16.75,7.613 14.655,8.967 C13.543,9.689 12.664,10.761 12.167,12 C12.663,13.237 13.541,14.309 14.653,15.032 C16.748,16.385 18,18.738 18,21.324 L18,23.5 C18,23.776 17.776,24 17.5,24 Z M4,23 L17,23 L17,21.324 C17,19.078 15.92,17.04 14.109,15.871 C12.764,14.997 11.718,13.684 11.162,12.173 C11.12,12.062 11.12,11.939 11.162,11.827 C11.719,10.314 12.766,9 14.111,8.127 C15.921,6.958 17,4.92 17,2.676 L17,1 L4,1 L4,2.676 C4,4.901 5.235,7.193 7.073,8.379 C7.248,8.493 7.418,8.597 7.583,8.698 C8.639,9.347 9.636,9.961 10.14,11.872 C10.165,11.967 10.161,12.066 10.13,12.159 C9.627,13.649 8.369,15.279 7.07,16.122 C5.09,17.404 4,19.251 4,21.324 L4,23 Z" id="Shape" fill="#41AB31"></path>
            <path d="M8.826,7.388 C8.732,7.388 8.638,7.362 8.555,7.308 C7.052,6.338 6.155,4.695 6.155,2.913 C6.155,2.637 6.379,2.413 6.655,2.413 C6.931,2.413 7.155,2.637 7.155,2.913 C7.155,4.354 7.882,5.683 9.098,6.468 C9.329,6.617 9.397,6.927 9.246,7.159 C9.15,7.307 8.99,7.388 8.826,7.388 Z" id="Shape" fill="#4D4D4D"></path>
            <path d="M14.709,21.587 C14.433,21.587 14.209,21.363 14.209,21.087 C14.209,19.646 13.483,18.316 12.268,17.532 C12.037,17.383 11.969,17.073 12.12,16.841 C12.27,16.607 12.58,16.543 12.811,16.692 C14.313,17.661 15.209,19.304 15.209,21.087 C15.209,21.363 14.985,21.587 14.709,21.587 Z" id="Shape" fill="#4D4D4D"></path>
        </g>
    </g>
</svg>