<?xml version="1.0" encoding="UTF-8"?>
<svg width="24px" height="24px" viewBox="0 0 24 24" version="1.1" xmlns="http://www.w3.org/2000/svg" xmlns:xlink="http://www.w3.org/1999/xlink">
    <!-- Generator: Sketch 49.3 (51167) - http://www.bohemiancoding.com/sketch -->
    <title>tx_bwbookingmanager_domain_model_notification</title>
    <desc>Created with Sketch.</desc>
    <defs></defs>
    <g id="Page-1" stroke="none" stroke-width="1" fill="none" fill-rule="evenodd">
        <g id="tx_bwbookingmanager_domain_model_notification" fill-rule="nonzero">
            <path d="M21.684,20.311 L2.316,20.311 C1.515,20.311 0.863,19.669 0.863,18.881 C0.863,18.105 1.495,17.472 2.279,17.451 C3.482,17.493 4.475,16.483 4.475,15.275 L4.475,9.459 C4.475,6.076 6.766,3.101 9.988,2.206 C9.987,2.185 9.987,2.162 9.987,2.141 C9.987,1.031 10.89,0.127 12.001,0.127 C13.112,0.127 14.015,1.03 14.015,2.141 C14.015,2.162 14.015,2.185 14.014,2.206 C17.235,3.101 19.525,6.076 19.525,9.459 L19.525,15.275 C19.525,16.475 20.501,17.451 21.701,17.451 C21.703,17.451 21.708,17.451 21.711,17.451 L21.721,17.451 C21.738,17.451 21.754,17.452 21.771,17.453 C22.533,17.497 23.139,18.121 23.139,18.881 C23.137,19.669 22.485,20.311 21.684,20.311 Z M2.316,18.451 C2.066,18.451 1.863,18.643 1.863,18.881 C1.863,19.119 2.066,19.311 2.316,19.311 L21.683,19.311 C21.933,19.311 22.136,19.119 22.136,18.881 C22.136,18.64 21.895,18.446 21.673,18.451 C19.934,18.437 18.523,17.017 18.523,15.275 L18.523,9.459 C18.523,6.385 16.343,3.699 13.339,3.071 C13.201,3.043 13.082,2.957 13.011,2.837 C12.939,2.716 12.922,2.57 12.963,2.436 C12.997,2.324 13.013,2.23 13.013,2.141 C13.013,1.582 12.558,1.127 11.999,1.127 C11.44,1.127 10.985,1.582 10.985,2.141 C10.985,2.23 11.001,2.324 11.035,2.436 C11.076,2.571 11.059,2.716 10.987,2.837 C10.916,2.957 10.797,3.043 10.659,3.071 C7.654,3.699 5.473,6.385 5.473,9.459 L5.473,15.275 C5.473,17.017 4.063,18.437 2.325,18.451 C2.323,18.451 2.32,18.451 2.316,18.451 Z" id="Shape" fill="#41AB31"></path>
            <path d="M12,23.873 C9.759,23.873 7.937,22.051 7.937,19.811 C7.937,19.535 8.161,19.311 8.437,19.311 C8.713,19.311 8.937,19.535 8.937,19.811 C8.937,21.499 10.312,22.873 12,22.873 C13.69,22.873 15.064,21.499 15.064,19.811 C15.064,19.535 15.288,19.311 15.564,19.311 C15.84,19.311 16.064,19.535 16.064,19.811 C16.064,22.051 14.241,23.873 12,23.873 Z" id="Shape" fill="#41AB31"></path>
            <path d="M8.784,15.684 C8.656,15.684 8.528,15.635 8.43,15.538 C7.476,14.585 6.951,13.317 6.952,11.969 C6.952,10.621 7.477,9.354 8.43,8.402 C8.625,8.207 8.942,8.207 9.137,8.402 C9.332,8.597 9.332,8.914 9.137,9.109 C8.373,9.873 7.952,10.888 7.952,11.969 C7.952,13.051 8.372,14.068 9.137,14.831 C9.332,15.026 9.332,15.343 9.137,15.538 C9.04,15.635 8.912,15.684 8.784,15.684 Z" id="Shape" fill="#4D4D4D"></path>
            <path d="M15.215,15.684 C15.087,15.684 14.959,15.635 14.861,15.538 C14.666,15.343 14.666,15.026 14.861,14.831 C16.439,13.253 16.439,10.686 14.861,9.108 C14.666,8.913 14.666,8.596 14.861,8.401 C15.056,8.206 15.373,8.206 15.568,8.401 C17.536,10.369 17.536,13.57 15.568,15.538 C15.471,15.635 15.343,15.684 15.215,15.684 Z" id="Shape" fill="#4D4D4D"></path>
            <path d="M10.219,14.248 C10.091,14.248 9.963,14.199 9.865,14.102 C8.69,12.927 8.69,11.013 9.865,9.835 C10.06,9.639 10.377,9.64 10.572,9.833 C10.767,10.028 10.768,10.345 10.573,10.54 C9.787,11.329 9.787,12.609 10.573,13.394 C10.768,13.589 10.768,13.906 10.573,14.101 C10.475,14.199 10.347,14.248 10.219,14.248 Z" id="Shape" fill="#4D4D4D"></path>
            <path d="M13.779,14.248 C13.651,14.248 13.523,14.199 13.425,14.102 C13.23,13.907 13.23,13.59 13.425,13.395 C14.211,12.61 14.211,11.33 13.425,10.541 C13.23,10.346 13.23,10.028 13.426,9.834 C13.621,9.639 13.938,9.639 14.133,9.834 C15.309,11.013 15.308,12.927 14.133,14.102 C14.035,14.199 13.907,14.248 13.779,14.248 Z" id="Shape" fill="#4D4D4D"></path>
            <path d="M12.66959,11.299327 C13.039417,11.669154 13.039417,12.268761 12.66959,12.638587 C12.299763,13.008414 11.700156,13.008414 11.33033,12.638587 C10.960503,12.26876 10.960503,11.669153 11.33033,11.299327 C11.700157,10.9295 12.299764,10.9295 12.66959,11.299327" id="Shape" fill="#4D4D4D"></path>
        </g>
    </g>
</svg>