<?xml version="1.0" encoding="UTF-8"?>
<svg width="26px" height="26px" viewBox="0 0 26 26" version="1.1" xmlns="http://www.w3.org/2000/svg" xmlns:xlink="http://www.w3.org/1999/xlink">
    <!-- Generator: Sketch 51.2 (57519) - http://www.bohemiancoding.com/sketch -->
    <title>tx_bwbookingmanager_domain_model_holiday</title>
    <desc>Created with Sketch.</desc>
    <defs></defs>
    <g id="Page-1" stroke="none" stroke-width="1" fill="none" fill-rule="evenodd">
        <g id="tx_bwbookingmanager_domain_model_holiday">
            <path d="M15.6311116,1.80937245 C21.741321,3.15261046 25.9984107,8.46098073 26,14.4082042 C26,14.914095 25.9691676,15.4247343 25.9062315,15.9372732 C25.8795313,16.1534956 25.7075694,16.324764 25.4901537,16.3510399 C25.2727379,16.3769992 25.0645401,16.2522677 24.9869824,16.0480753 C24.5391186,14.8745228 23.4873222,13.9441017 22.1243415,13.6971713 L22.1233879,13.6971713 C21.8894435,13.6541168 21.6570883,13.6341724 21.4275939,13.6341724 C20.1758639,13.6335393 19.0290276,14.2470663 18.352623,15.2180093 C18.2458222,15.3709162 18.058921,15.4475279 17.8751983,15.4142873 C17.6908399,15.3810467 17.543671,15.2430189 17.4982172,15.0625698 C17.0659285,13.3429212 15.71153,11.9059763 13.8781175,11.3909048 L13.4305716,13.8348825 L11.6623203,23.4971421 C14.807856,23.543679 17.5783177,23.8960297 19.4330267,24.4424423 C20.0983063,24.63967 20.6472493,24.8596913 21.0722272,25.1218174 C21.2960001,25.2601618 21.364022,25.5533125 21.2251175,25.7758664 C21.086213,25.9984203 20.792511,26.0668011 20.568738,25.9284567 C20.2585074,25.7353445 19.7747255,25.5330515 19.1615749,25.352919 C18.5481064,25.1715201 17.8049514,25.0084827 16.9638957,24.8729876 C15.2808306,24.6019973 13.2067987,24.4408594 10.9662084,24.4408594 C7.607707,24.4392765 4.6153795,24.8061898 2.77147767,25.3526024 C2.15832707,25.5327349 1.67422735,25.7350279 1.36399666,25.9278236 C1.14054157,26.0664845 0.846521715,25.9977872 0.707617199,25.7749167 C0.568712682,25.5520462 0.637370292,25.2598452 0.861143243,25.1211843 C1.28580328,24.8590582 1.83506416,24.6393535 2.50002582,24.4421257 C3.16498749,24.2455311 3.94406065,24.0758456 4.8169023,23.9352853 C6.49138512,23.6652447 8.51201673,23.5056897 10.6931673,23.4933432 L12.4919331,13.6639307 L12.9407504,11.2129883 C12.767835,11.1962097 12.5958731,11.1863958 12.4251826,11.1863958 C10.7020673,11.1857626 9.12230659,12.0316575 8.19034311,13.3720463 C8.0841781,13.5246366 7.89727683,13.6018815 7.71355415,13.5686409 C7.52919575,13.5354003 7.38170904,13.3976891 7.3359373,13.2175565 C6.99328497,11.8610223 5.8604344,10.7431874 4.34551695,10.4687148 L4.43133896,10.0014465 L4.34519909,10.4683982 C4.1115725,10.4256602 3.87985307,10.4057158 3.65099437,10.4057158 C2.54770472,10.4053993 1.52546919,10.8834312 0.834125202,11.6625282 C0.689181359,11.8258822 0.45046902,11.8698864 0.256256985,11.7688982 C0.0620449491,11.66791 -0.0380807322,11.4475722 0.0134124753,11.2357819 C0.719060134,8.34511339 2.40085372,5.9049346 4.64939045,4.19193415 C6.89760931,2.47798397 9.71479634,1.48709663 12.6988595,1.48678005 C13.3571461,1.48678005 14.0236971,1.53838217 14.6934266,1.63778749 L14.9219675,0.389522699 L14.9219675,0.389839276 C14.9690107,0.131828675 15.2175766,-0.0391231343 15.4763141,0.00773032458 C15.7350516,0.054267206 15.9070135,0.301830752 15.8599703,0.559841354 L15.6311116,1.80937245 Z M4.51684312,9.5341782 C5.84740217,9.77635993 6.94624179,10.5421607 7.63122859,11.5738865 C8.09371388,9.64371399 8.72688962,7.89050821 9.46686608,6.41177505 C10.3168219,4.71840241 11.3005964,3.38149594 12.3711466,2.54984705 C12.4207326,2.51154118 12.4709544,2.47671766 12.5208583,2.44062784 C9.81619346,2.47861713 7.26823327,3.39130984 5.22821224,4.94602158 C3.52607566,6.24398902 2.17930578,7.9845317 1.38751825,10.0346871 C2.06646573,9.66619098 2.83949956,9.45598357 3.65067651,9.45566699 C3.93579631,9.45566699 4.22536613,9.48099319 4.51684312,9.5341782 Z M13.5535832,10.3392346 C15.3765063,10.670058 16.8653593,11.7565517 17.7413795,13.2058432 C17.8618482,12.1836147 17.92097,11.1943102 17.9206522,10.2585073 C17.9212879,8.64332932 17.7474189,7.1851737 17.4295595,5.99009392 C17.1132895,4.79406441 16.6473078,3.86712571 16.1098077,3.30646709 C15.7503088,2.93132284 15.3723741,2.71668335 14.9626535,2.6416545 C14.8571242,2.62234328 14.751277,2.61316253 14.6441585,2.61316253 C14.1304978,2.61189622 13.5583511,2.83318384 12.9563255,3.29918581 C12.356525,3.76328832 11.7405137,4.46450731 11.1607383,5.35788881 C10.1429528,6.92368075 9.23610023,9.0741912 8.61849959,11.5495101 C9.67442821,10.7194441 11.0088016,10.2372967 12.4251826,10.2366635 C12.797078,10.2366635 13.1750127,10.2695876 13.5535832,10.3392346 Z M22.2943962,12.7623182 C23.4097645,12.9646112 24.3614353,13.5372997 25.0435613,14.3239946 C25.0092325,9.4990381 21.9326723,5.11760654 17.3122695,3.30963287 C17.552889,3.6724306 17.7677618,4.07859943 17.9514845,4.53257146 C18.5582779,6.03821369 18.8735944,8.01428998 18.8748658,10.2585073 C18.8745479,11.3149262 18.8004867,12.4314948 18.6536357,13.5828869 C19.4403375,13.0146304 20.4044048,12.683807 21.4269582,12.683807 C21.7123958,12.6834904 22.0029192,12.7088166 22.2943962,12.7623182 Z" id="Shape" fill="#4D4D4D" fill-rule="nonzero"></path>
            <path d="M15.6311116,1.80937245 L14.6934266,1.63778749 C14.0236971,1.53838217 13.3571461,1.48678005 12.6988595,1.48678005 C9.71479634,1.48709663 6.89760931,2.47798397 4.64939045,4.19193415 C2.40085372,5.9049346 0.719060134,8.34511339 0.0134124753,11.2357819 C-0.0380807322,11.4475722 0.0620449491,11.66791 0.256256985,11.7688982 C0.45046902,11.8698864 0.689181359,11.8258822 0.834125202,11.6625282 C1.52546919,10.8834312 2.54770472,10.4053993 3.65099437,10.4057158 C3.87985307,10.4057158 4.1115725,10.4256602 4.34519909,10.4683982 L4.43133896,10.0014465 L4.34551695,10.4687148 C5.8604344,10.7431874 6.99328497,11.8610223 7.3359373,13.2175565 C7.38170904,13.3976891 7.52919575,13.5354003 7.71355415,13.5686409 C7.89727683,13.6018815 8.0841781,13.5246366 8.19034311,13.3720463 C9.12230659,12.0316575 10.7020673,11.1857626 12.4251826,11.1863958 C12.5958731,11.1863958 12.767835,11.1962097 12.9407504,11.2129883 L13.8781175,11.3909048 C15.71153,11.9059763 17.0659285,13.3429212 17.4982172,15.0625698 C17.543671,15.2430189 17.6908399,15.3810467 17.8751983,15.4142873 C18.058921,15.4475279 18.2458222,15.3709162 18.352623,15.2180093 C19.0290276,14.2470663 20.1758639,13.6335393 21.4275939,13.6341724 C21.6570883,13.6341724 21.8894435,13.6541168 22.1233879,13.6971713 C23.4873222,13.9441017 24.5391186,14.8745228 24.9869824,16.0480753 C25.0645401,16.2522677 25.2727379,16.3769992 25.4901537,16.3510399 C25.7075694,16.324764 25.8795313,16.1534956 25.9062315,15.9372732 C25.9691676,15.4247343 26,14.914095 26,14.4082042 C25.9984107,8.46098073 21.741321,3.15261046 15.6311116,1.80937245 Z M4.51684312,9.5341782 C4.22536613,9.48099319 3.93579631,9.45566699 3.65067651,9.45566699 C2.83949956,9.45598357 2.06646573,9.66619098 1.38751825,10.0346871 C2.17930578,7.9845317 3.52607566,6.24398902 5.22821224,4.94602158 C7.26823327,3.39130984 9.81619346,2.47861713 12.5208583,2.44062784 C12.4709544,2.47671766 12.4207326,2.51154118 12.3711466,2.54984705 C11.3005964,3.38149594 10.3168219,4.71840241 9.46686608,6.41177505 C8.72688962,7.89050821 8.09371388,9.64371399 7.63122859,11.5738865 C6.94624179,10.5421607 5.84740217,9.77635993 4.51684312,9.5341782 Z M13.5535832,10.3392346 C13.1750127,10.2695876 12.797078,10.2366635 12.4251826,10.2366635 C11.0088016,10.2372967 9.67442821,10.7194441 8.61849959,11.5495101 C9.23610023,9.0741912 10.1429528,6.92368075 11.1607383,5.35788881 C11.7405137,4.46450731 12.356525,3.76328832 12.9563255,3.29918581 C13.5583511,2.83318384 14.1304978,2.61189622 14.6441585,2.61316253 C14.751277,2.61316253 14.8571242,2.62234328 14.9626535,2.6416545 C15.3723741,2.71668335 15.7503088,2.93132284 16.1098077,3.30646709 C16.6473078,3.86712571 17.1132895,4.79406441 17.4295595,5.99009392 C17.7474189,7.1851737 17.9212879,8.64332932 17.9206522,10.2585073 C17.92097,11.1943102 17.8618482,12.1836147 17.7413795,13.2058432 C16.8653593,11.7565517 15.3765063,10.670058 13.5535832,10.3392346 Z M22.2943962,12.7623182 C22.0029192,12.7088166 21.7123958,12.6834904 21.4269582,12.683807 C20.4044048,12.683807 19.4403375,13.0146304 18.6536357,13.5828869 C18.8004867,12.4314948 18.8745479,11.3149262 18.8748658,10.2585073 C18.8735944,8.01428998 18.5582779,6.03821369 17.9514845,4.53257146 C17.7677618,4.07859943 17.552889,3.6724306 17.3122695,3.30963287 C21.9326723,5.11760654 25.0092325,9.4990381 25.0435613,14.3239946 C24.3614353,13.5372997 23.4097645,12.9646112 22.2943962,12.7623182 Z" id="Path" fill="#41AB31"></path>
        </g>
    </g>
</svg>