<?xml version="1.0" encoding="UTF-8"?>
<svg width="24px" height="24px" viewBox="0 0 24 24" version="1.1" xmlns="http://www.w3.org/2000/svg" xmlns:xlink="http://www.w3.org/1999/xlink">
    <!-- Generator: Sketch 49.3 (51167) - http://www.bohemiancoding.com/sketch -->
    <title>tx_bwbookingmanager_domain_model_calendar</title>
    <desc>Created with Sketch.</desc>
    <defs></defs>
    <g id="Page-1" stroke="none" stroke-width="1" fill="none" fill-rule="evenodd">
        <g id="tx_bwbookingmanager_domain_model_calendar" fill-rule="nonzero">
            <path d="M21.184,23.416 L2.816,23.416 C1.859,23.416 1.08,22.636 1.08,21.676 L1.08,19.912 C1.08,19.764 1.145,19.623 1.26,19.528 C1.375,19.433 1.52,19.396 1.67,19.42 C1.686,19.423 1.771,19.444 1.786,19.448 L22.232,19.451 C22.247,19.447 22.313,19.424 22.328,19.421 C22.474,19.394 22.624,19.433 22.739,19.527 C22.853,19.622 22.92,19.763 22.92,19.912 L22.92,21.676 C22.92,22.636 22.141,23.416 21.184,23.416 Z M2.08,20.451 L2.08,21.676 C2.08,22.084 2.41,22.416 2.816,22.416 L21.183,22.416 C21.589,22.416 21.919,22.084 21.919,21.676 L21.919,20.451 L2.08,20.451 Z" id="Shape" fill="#41AB31"></path>
            <path d="M8.246,7.094 L5.17,7.094 C4.67,7.094 4.264,6.689 4.264,6.19 L4.609,1.051 C4.627,0.788 4.845,0.584 5.108,0.584 L8.307,0.584 C8.571,0.584 8.788,0.788 8.806,1.051 L9.148,6.156 C9.148,6.688 8.743,7.094 8.246,7.094 Z M5.271,6.094 L8.141,6.094 L7.838,1.584 L5.575,1.584 L5.271,6.094 Z" id="Shape" fill="#41AB31"></path>
            <path d="M7.15589,4.486111 C7.402701,4.732922 7.402701,5.133083 7.15589,5.379894 C6.909079,5.626705 6.508918,5.626705 6.262107,5.379894 C6.015296,5.133083 6.015296,4.732922 6.262107,4.486111 C6.508918,4.2393 6.909079,4.2393 7.15589,4.486111" id="Shape" fill="#41AB31"></path>
            <path d="M18.828,7.094 L15.754,7.094 C15.254,7.094 14.848,6.689 14.848,6.19 L15.191,1.051 C15.209,0.788 15.427,0.584 15.69,0.584 L18.891,0.584 C19.154,0.584 19.372,0.788 19.39,1.051 L19.734,6.156 C19.734,6.688 19.328,7.094 18.828,7.094 Z M15.855,6.094 L18.727,6.094 L18.422,1.584 L16.156,1.584 L15.855,6.094 Z" id="Shape" fill="#41AB31"></path>
            <path d="M17.291,4.301 C16.944,4.301 16.662,4.585 16.662,4.934 C16.662,5.288 16.938,5.565 17.291,5.565 C17.64,5.565 17.924,5.282 17.924,4.934 C17.924,4.585 17.64,4.301 17.291,4.301 Z" id="Shape" fill="#41AB31"></path>
            <path d="M22.232,20.451 L1.768,20.451 C0.81,20.451 0.03,19.671 0.03,18.713 L1.081,3.092 C1.099,2.829 1.317,2.625 1.58,2.625 L4.971,2.625 C5.11,2.625 5.242,2.683 5.336,2.783 C5.431,2.885 5.479,3.021 5.47,3.159 L5.271,6.094 L8.141,6.094 L7.944,3.158 C7.935,3.02 7.983,2.885 8.078,2.783 C8.173,2.682 8.305,2.625 8.443,2.625 L15.554,2.625 C15.693,2.625 15.825,2.683 15.919,2.783 C16.014,2.885 16.062,3.02 16.053,3.159 L15.855,6.094 L18.727,6.094 L18.526,3.159 C18.517,3.02 18.565,2.885 18.66,2.783 C18.755,2.682 18.887,2.625 19.025,2.625 L22.42,2.625 C22.683,2.625 22.901,2.829 22.919,3.092 L23.97,18.68 C23.971,19.671 23.19,20.451 22.232,20.451 Z M2.048,3.625 L1.028,18.746 C1.029,19.12 1.36,19.451 1.767,19.451 L22.232,19.451 C22.639,19.451 22.97,19.12 22.97,18.713 L21.952,3.625 L19.56,3.625 L19.733,6.155 C19.734,6.688 19.328,7.093 18.828,7.093 L15.754,7.093 C15.254,7.093 14.848,6.688 14.848,6.189 L15.02,3.625 L8.978,3.625 L9.148,6.156 C9.149,6.688 8.744,7.094 8.247,7.094 L5.17,7.094 C4.67,7.094 4.264,6.689 4.264,6.19 L4.436,3.626 L2.048,3.626 L2.048,3.625 Z" id="Shape" fill="#41AB31"></path>
            <path d="M4.574,6.418 L1.391,6.418 C1.115,6.418 0.891,6.194 0.891,5.918 C0.891,5.642 1.115,5.418 1.391,5.418 L4.575,5.418 C4.851,5.418 5.075,5.642 5.075,5.918 C5.075,6.194 4.851,6.418 4.574,6.418 Z" id="Shape" fill="#41AB31"></path>
            <path d="M15.348,6.418 L8.649,6.418 C8.373,6.418 8.149,6.194 8.149,5.918 C8.149,5.642 8.373,5.418 8.649,5.418 L15.348,5.418 C15.624,5.418 15.848,5.642 15.848,5.918 C15.848,6.194 15.624,6.418 15.348,6.418 Z" id="Shape" fill="#41AB31"></path>
            <path d="M22.418,6.418 L19.234,6.418 C18.958,6.418 18.734,6.194 18.734,5.918 C18.734,5.642 18.958,5.418 19.234,5.418 L22.418,5.418 C22.694,5.418 22.918,5.642 22.918,5.918 C22.918,6.194 22.694,6.418 22.418,6.418 Z" id="Shape" fill="#41AB31"></path>
            <path d="M5.518,10.295 L4.352,10.295 C4.076,10.295 3.852,10.071 3.852,9.795 C3.852,9.519 4.076,9.295 4.352,9.295 L5.518,9.295 C5.794,9.295 6.018,9.519 6.018,9.795 C6.018,10.071 5.794,10.295 5.518,10.295 Z" id="path-1" fill="#4D4D4D"></path>
            <path d="M9.051,10.295 L7.885,10.295 C7.609,10.295 7.385,10.071 7.385,9.795 C7.385,9.519 7.609,9.295 7.885,9.295 L9.051,9.295 C9.327,9.295 9.551,9.519 9.551,9.795 C9.551,10.071 9.327,10.295 9.051,10.295 Z" id="path-1" fill="#4D4D4D"></path>
            <path d="M12.584,10.295 L11.418,10.295 C11.142,10.295 10.918,10.071 10.918,9.795 C10.918,9.519 11.142,9.295 11.418,9.295 L12.584,9.295 C12.86,9.295 13.084,9.519 13.084,9.795 C13.084,10.071 12.86,10.295 12.584,10.295 Z" id="path-1" fill="#4D4D4D"></path>
            <path d="M16.117,10.295 L14.951,10.295 C14.675,10.295 14.451,10.071 14.451,9.795 C14.451,9.519 14.675,9.295 14.951,9.295 L16.117,9.295 C16.393,9.295 16.617,9.519 16.617,9.795 C16.617,10.071 16.394,10.295 16.117,10.295 Z" id="path-2" fill="#4D4D4D"></path>
            <path d="M19.65,10.295 L18.484,10.295 C18.208,10.295 17.984,10.071 17.984,9.795 C17.984,9.519 18.208,9.295 18.484,9.295 L19.65,9.295 C19.926,9.295 20.15,9.519 20.15,9.795 C20.15,10.071 19.927,10.295 19.65,10.295 Z" id="path-2" fill="#4D4D4D"></path>
            <path d="M5.518,12.625 L4.352,12.625 C4.076,12.625 3.852,12.401 3.852,12.125 C3.852,11.849 4.076,11.625 4.352,11.625 L5.518,11.625 C5.794,11.625 6.018,11.849 6.018,12.125 C6.018,12.401 5.794,12.625 5.518,12.625 Z" id="path-1" fill="#4D4D4D"></path>
            <path d="M9.051,12.625 L7.885,12.625 C7.609,12.625 7.385,12.401 7.385,12.125 C7.385,11.849 7.609,11.625 7.885,11.625 L9.051,11.625 C9.327,11.625 9.551,11.849 9.551,12.125 C9.551,12.401 9.327,12.625 9.051,12.625 Z" id="path-1" fill="#4D4D4D"></path>
            <path d="M12.584,12.625 L11.418,12.625 C11.142,12.625 10.918,12.401 10.918,12.125 C10.918,11.849 11.142,11.625 11.418,11.625 L12.584,11.625 C12.86,11.625 13.084,11.849 13.084,12.125 C13.084,12.401 12.86,12.625 12.584,12.625 Z" id="path-1" fill="#4D4D4D"></path>
            <path d="M16.117,12.625 L14.951,12.625 C14.675,12.625 14.451,12.401 14.451,12.125 C14.451,11.849 14.675,11.625 14.951,11.625 L16.117,11.625 C16.393,11.625 16.617,11.849 16.617,12.125 C16.617,12.401 16.394,12.625 16.117,12.625 Z" id="path-2" fill="#4D4D4D"></path>
            <path d="M19.65,12.625 L18.484,12.625 C18.208,12.625 17.984,12.401 17.984,12.125 C17.984,11.849 18.208,11.625 18.484,11.625 L19.65,11.625 C19.926,11.625 20.15,11.849 20.15,12.125 C20.15,12.401 19.927,12.625 19.65,12.625 Z" id="path-2" fill="#4D4D4D"></path>
            <path d="M5.518,14.953 L4.352,14.953 C4.076,14.953 3.852,14.729 3.852,14.453 C3.852,14.177 4.076,13.953 4.352,13.953 L5.518,13.953 C5.794,13.953 6.018,14.177 6.018,14.453 C6.018,14.729 5.794,14.953 5.518,14.953 Z" id="path-1" fill="#4D4D4D"></path>
            <path d="M9.051,14.953 L7.885,14.953 C7.609,14.953 7.385,14.729 7.385,14.453 C7.385,14.177 7.609,13.953 7.885,13.953 L9.051,13.953 C9.327,13.953 9.551,14.177 9.551,14.453 C9.551,14.729 9.327,14.953 9.051,14.953 Z" id="path-1" fill="#4D4D4D"></path>
            <path d="M12.584,14.953 L11.418,14.953 C11.142,14.953 10.918,14.729 10.918,14.453 C10.918,14.177 11.142,13.953 11.418,13.953 L12.584,13.953 C12.86,13.953 13.084,14.177 13.084,14.453 C13.084,14.729 12.86,14.953 12.584,14.953 Z" id="path-1" fill="#4D4D4D"></path>
            <path d="M16.117,14.953 L14.951,14.953 C14.675,14.953 14.451,14.729 14.451,14.453 C14.451,14.177 14.675,13.953 14.951,13.953 L16.117,13.953 C16.393,13.953 16.617,14.177 16.617,14.453 C16.617,14.729 16.394,14.953 16.117,14.953 Z" id="path-2" fill="#4D4D4D"></path>
            <path d="M19.65,14.953 L18.484,14.953 C18.208,14.953 17.984,14.729 17.984,14.453 C17.984,14.177 18.208,13.953 18.484,13.953 L19.65,13.953 C19.926,13.953 20.15,14.177 20.15,14.453 C20.15,14.729 19.927,14.953 19.65,14.953 Z" id="path-2" fill="#4D4D4D"></path>
            <path d="M5.518,17.283 L4.352,17.283 C4.076,17.283 3.852,17.059 3.852,16.783 C3.852,16.507 4.076,16.283 4.352,16.283 L5.518,16.283 C5.794,16.283 6.018,16.507 6.018,16.783 C6.018,17.059 5.794,17.283 5.518,17.283 Z" id="path-1" fill="#4D4D4D"></path>
            <path d="M9.051,17.283 L7.885,17.283 C7.609,17.283 7.385,17.059 7.385,16.783 C7.385,16.507 7.609,16.283 7.885,16.283 L9.051,16.283 C9.327,16.283 9.551,16.507 9.551,16.783 C9.551,17.059 9.327,17.283 9.051,17.283 Z" id="path-1" fill="#4D4D4D"></path>
            <path d="M12.584,17.283 L11.418,17.283 C11.142,17.283 10.918,17.059 10.918,16.783 C10.918,16.507 11.142,16.283 11.418,16.283 L12.584,16.283 C12.86,16.283 13.084,16.507 13.084,16.783 C13.084,17.059 12.86,17.283 12.584,17.283 Z" id="path-1" fill="#4D4D4D"></path>
            <path d="M16.117,17.283 L14.951,17.283 C14.675,17.283 14.451,17.059 14.451,16.783 C14.451,16.507 14.675,16.283 14.951,16.283 L16.117,16.283 C16.393,16.283 16.617,16.507 16.617,16.783 C16.617,17.059 16.394,17.283 16.117,17.283 Z" id="path-2" fill="#4D4D4D"></path>
            <path d="M19.65,17.283 L18.484,17.283 C18.208,17.283 17.984,17.059 17.984,16.783 C17.984,16.507 18.208,16.283 18.484,16.283 L19.65,16.283 C19.926,16.283 20.15,16.507 20.15,16.783 C20.15,17.059 19.927,17.283 19.65,17.283 Z" id="path-2" fill="#4D4D4D"></path>
        </g>
    </g>
</svg>