<?xml version="1.0" encoding="UTF-8"?>
<svg width="26px" height="26px" viewBox="0 0 26 26" version="1.1" xmlns="http://www.w3.org/2000/svg" xmlns:xlink="http://www.w3.org/1999/xlink">
    <!-- Generator: Sketch 52.6 (67491) - http://www.bohemiancoding.com/sketch -->
    <title>tx_bwbookingmanager_domain_model_ics</title>
    <desc>Created with Sketch.</desc>
    <g id="Page-1" stroke="none" stroke-width="1" fill="none" fill-rule="evenodd">
        <g id="tx_bwbookingmanager_domain_model_ics">
            <path d="M6,23 C6,24.6550677 4.65510109,26 3,26 C1.34493227,26 0,24.6551011 0,23 C0,21.3449323 1.34489891,20 3,20 C4.65506773,20 6,21.3448989 6,23 Z" id="Path" fill="#4D4D4D"></path>
            <path d="M12.9997944,22.9998972 L10.9923256,22.9998972 C10.9923256,18.590163 7.40557763,15.0074895 3,15.0074895 L3,13 C5.66993285,13 8.18192408,14.0412263 10.0731122,15.9309264 C11.9587844,17.8179541 13,20.3314101 13,23 L12.9997944,22.9998972 Z" id="Path" fill="#41AB31"></path>
            <path d="M19,23 L17.0815349,23 C17.0815349,15.236624 10.763376,8.91846507 3,8.91846507 L3,7 C5.15891985,7 7.25641634,7.42207279 9.22844678,8.2559375 C11.1341099,9.06167711 12.8454184,10.2153296 14.312245,11.6836623 C15.7805122,13.1519295 16.934132,14.8657592 17.7399698,16.7674605 C18.5738672,18.7485931 18.9997708,20.8421606 18.9997708,22.9998363 L19,23 Z" id="Path" fill="#41AB31"></path>
            <path d="M26,23 L24.0324454,22.9998657 C24.0324454,11.4022874 14.5989553,1.96748169 3,1.96748169 L3,0 C6.10599358,0 9.11494585,0.605985973 11.9519772,1.80744794 C14.6906912,2.96431804 17.1488921,4.62486131 19.2606319,6.73672931 C21.3724053,8.84849657 23.031476,11.3077312 24.1899277,14.0453627 C25.3940123,16.885072 26,19.899388 26,23 Z" id="Path" fill="#41AB31"></path>
        </g>
    </g>
</svg>